<?xml version="1.0" standalone="no"?>
<!DOCTYPE svg PUBLIC "-//W3C//DTD SVG 20010904//EN"
 "http://www.w3.org/TR/2001/REC-SVG-20010904/DTD/svg10.dtd">
<svg version="1.0" xmlns="http://www.w3.org/2000/svg"
 width="547.000000pt" height="547.000000pt" viewBox="0 0 547.000000 547.000000"
 preserveAspectRatio="xMidYMid meet">

<g transform="translate(0.000000,547.000000) scale(0.100000,-0.100000)"
fill="#000000" stroke="none">
<path d="M2359 5450 c-720 -109 -1314 -449 -1765 -1010 -245 -305 -432 -694
-519 -1079 -53 -233 -68 -369 -68 -621 0 -252 15 -388 68 -621 134 -593 473
-1129 965 -1525 305 -245 694 -432 1079 -519 233 -53 369 -68 621 -68 252 0
388 15 621 68 385 87 774 274 1079 519 492 396 831 932 965 1525 50 221 65
364 65 621 0 257 -15 400 -65 621 -111 491 -366 950 -730 1314 -427 427 -946
685 -1560 775 -182 27 -581 27 -756 0z m722 -96 c688 -95 1276 -424 1709 -954
254 -312 439 -698 524 -1090 46 -217 59 -341 59 -570 0 -229 -13 -353 -59
-570 -85 -392 -270 -778 -524 -1090 -381 -467 -904 -790 -1480 -914 -217 -46
-341 -59 -570 -59 -229 0 -353 13 -570 59 -576 124 -1099 447 -1480 914 -305
375 -491 810 -566 1325 -24 165 -24 505 0 670 75 515 261 950 566 1325 469
575 1139 920 1890 974 102 7 386 -4 501 -20z"/>
<path d="M2825 4149 c-4 -6 4 -23 19 -38 l25 -27 3 -734 c3 -720 3 -736 23
-770 58 -98 77 -122 88 -111 8 8 8 23 -1 56 -30 114 0 289 69 395 l38 60 213
2 213 3 3 129 c3 159 1 168 -36 133 l-28 -27 -172 0 -173 0 3 113 3 112 149 3
c90 1 155 7 163 14 9 7 13 39 13 108 0 69 -4 101 -13 108 -8 7 -73 13 -163 14
l-149 3 0 110 0 110 166 3 167 2 31 -26 c24 -20 32 -22 36 -12 3 8 4 72 3 144
l-3 129 -342 3 c-239 1 -344 -1 -348 -9z"/>
<path d="M2536 4111 c-4 -5 -2 -21 4 -36 18 -47 12 -223 -10 -289 -24 -70 -59
-132 -92 -163 -23 -22 -33 -23 -228 -25 l-205 -3 -3 -124 c-1 -70 2 -129 7
-134 6 -6 22 -2 44 12 33 20 46 21 199 19 l163 -3 3 -112 3 -113 -151 0 c-85
0 -160 -5 -171 -10 -17 -10 -19 -22 -19 -109 0 -69 4 -102 13 -110 8 -6 75
-12 168 -13 l154 -3 3 -112 3 -113 -178 0 c-166 0 -178 1 -199 21 -37 35 -44
17 -44 -115 0 -106 2 -125 18 -139 17 -15 55 -17 339 -17 359 0 362 1 318 60
l-25 34 0 728 0 727 -26 48 c-52 93 -74 117 -88 94z"/>
<path d="M1790 2013 c-1 -5 -1 -165 0 -357 1 -362 3 -381 44 -415 14 -12 16
-6 16 51 0 69 26 141 55 152 9 3 54 6 100 6 98 0 108 7 103 77 l-3 48 -95 0
-95 0 -3 48 -3 47 68 0 c40 0 74 5 81 12 16 16 15 95 0 105 -7 4 -42 10 -78
13 l-65 5 0 45 0 45 95 0 95 0 3 48 c5 75 1 77 -169 77 -82 0 -149 -3 -149 -7z"/>
<path d="M2172 2008 c-7 -9 -8 -19 -2 -28 14 -21 13 -483 0 -496 -8 -8 -6 -15
4 -23 11 -9 48 -12 125 -9 l110 3 37 35 c57 55 64 81 64 247 0 168 -8 195 -73
247 -37 30 -44 31 -146 34 -82 3 -110 0 -119 -10z m196 -275 l-3 -148 -27 -3
-28 -3 0 150 0 151 30 0 31 0 -3 -147z"/>
<path d="M2573 2009 c-8 -8 -9 -19 -2 -37 5 -14 9 -93 8 -177 -1 -150 0 -153
31 -221 17 -38 32 -75 33 -84 5 -33 19 -40 79 -40 49 0 66 4 84 21 l22 21 11
-21 c10 -18 21 -21 74 -21 62 0 87 11 87 37 0 7 9 32 19 56 48 104 49 112 52
294 l3 178 -58 3 c-60 3 -96 -12 -76 -32 17 -17 13 -286 -5 -330 -29 -70 -48
-31 -44 93 l2 76 -63 3 c-74 4 -99 -3 -82 -20 16 -16 15 -125 -1 -162 -12 -27
-13 -27 -27 -11 -12 14 -15 56 -16 199 l-2 181 -58 3 c-36 2 -64 -2 -71 -9z"/>
<path d="M3150 2013 c-1 -5 -1 -132 -1 -283 l0 -275 66 0 66 0 0 273 c0 150
-3 277 -6 283 -7 11 -125 12 -125 2z"/>
<path d="M3355 2011 c-3 -6 -6 -133 -6 -283 l0 -273 67 -3 c70 -3 98 8 76 30
-14 14 -17 194 -3 202 4 3 25 -34 45 -82 20 -48 45 -102 56 -119 19 -31 23
-33 79 -33 38 0 63 5 70 14 9 10 9 16 1 21 -8 5 -11 86 -9 268 l2 262 -58 3
c-65 3 -90 -10 -75 -38 13 -24 13 -187 1 -195 -10 -5 -51 74 -77 149 -28 78
-38 86 -104 86 -32 0 -61 -4 -65 -9z"/>
</g>
</svg>
