<?xml version="1.0" standalone="no"?>
<!DOCTYPE svg PUBLIC "-//W3C//DTD SVG 20010904//EN"
 "http://www.w3.org/TR/2001/REC-SVG-20010904/DTD/svg10.dtd">
<svg version="1.0" xmlns="http://www.w3.org/2000/svg"
 width="547.000000pt" height="547.000000pt" viewBox="0 0 547.000000 547.000000"
 preserveAspectRatio="xMidYMid meet">

<g transform="translate(0.000000,547.000000) scale(0.100000,-0.100000)"
fill="#000000" stroke="none">
<path d="M2575 5460 c-450 -28 -900 -175 -1288 -421 -314 -199 -641 -527 -838
-840 -282 -448 -421 -928 -421 -1454 0 -512 129 -965 405 -1420 190 -313 538
-665 858 -866 445 -280 927 -420 1449 -421 518 -1 1011 143 1453 423 302 192
630 516 822 813 294 457 438 944 437 1486 -1 441 -89 805 -295 1215 -250 500
-692 942 -1195 1194 -441 221 -912 320 -1387 291z m935 -1440 c0 -71 -2 -130
-5 -130 -3 0 -14 9 -25 20 -19 19 -31 20 -198 18 l-177 -3 -3 -111 c-2 -84 1
-114 11 -122 8 -7 71 -13 163 -14 l149 -3 0 -105 0 -105 -157 -3 c-185 -3
-171 10 -166 -147 l3 -100 176 -3 c165 -2 177 -1 194 18 10 11 22 20 27 20 4
0 8 -58 8 -130 l0 -130 -208 0 c-238 0 -221 6 -280 -100 -58 -103 -77 -234
-52 -359 5 -29 10 -56 10 -60 0 -9 -38 49 -68 104 l-27 50 -5 737 -5 736 -24
26 -24 26 341 0 342 0 0 -130z m-933 57 c12 -17 31 -49 42 -70 21 -37 21 -46
21 -768 l0 -730 26 -35 26 -34 -336 0 -336 0 0 131 0 131 31 -26 c30 -26 33
-26 193 -26 113 0 166 4 174 12 17 17 16 222 -1 237 -8 6 -75 12 -168 13
l-154 3 0 100 0 100 154 3 c93 1 160 7 168 13 17 15 18 220 1 237 -8 8 -62 12
-176 12 -150 0 -166 -2 -193 -21 l-29 -20 0 125 0 126 199 0 199 0 35 40 c80
87 109 182 105 332 -2 62 -7 121 -12 131 -14 29 8 19 31 -16z m-479 -2123 l3
-51 -75 5 c-41 2 -86 2 -101 -2 -24 -6 -26 -10 -23 -59 l3 -52 65 -3 c35 -2
70 -8 77 -14 7 -6 13 -28 13 -49 0 -44 -6 -47 -100 -51 l-55 -3 -3 -43 c-5
-68 7 -75 111 -70 l88 4 -3 -50 -3 -51 -94 -3 c-52 -1 -101 -8 -109 -14 -31
-27 -52 -87 -52 -155 l0 -68 -20 30 c-18 29 -19 52 -20 385 0 195 -1 358 0
363 0 4 66 6 148 5 l147 -3 3 -51z m312 34 c70 -36 84 -69 88 -218 5 -153 -8
-227 -46 -262 -45 -42 -66 -48 -169 -48 l-98 0 2 272 c2 150 3 274 3 276 0 1
40 2 88 2 71 0 96 -4 132 -22z m280 2 c-2 -8 -6 -75 -8 -149 -4 -137 8 -202
42 -230 24 -20 49 57 44 138 l-4 71 57 0 56 0 -5 -73 c-3 -56 0 -81 12 -105
22 -42 38 -40 60 5 14 30 17 62 15 197 l-2 161 53 0 53 0 -2 -170 c-2 -167 -3
-172 -36 -255 -18 -47 -36 -93 -39 -102 -9 -29 -112 -25 -144 4 l-23 23 -18
-23 c-15 -20 -24 -23 -76 -20 l-59 3 -37 92 -37 91 -2 174 c-1 95 -1 177 -1
181 1 4 25 7 54 5 41 -2 51 -6 47 -18z m577 12 c8 -5 9 -13 3 -22 -13 -21 -13
-487 0 -495 22 -14 -4 -25 -58 -25 l-57 0 2 272 c1 150 3 274 3 276 0 6 96 1
107 -6z m221 -14 c6 -13 23 -52 38 -88 14 -36 35 -82 46 -103 16 -33 21 -37
35 -26 12 11 14 33 11 126 l-3 113 55 0 55 0 0 -275 0 -275 -58 0 -58 0 -33
73 c-19 39 -43 94 -55 120 -34 79 -46 58 -46 -77 l0 -117 -60 3 c-33 2 -59 6
-57 11 1 4 2 126 2 272 l0 265 58 0 c51 0 60 -3 70 -22z"/>
<path d="M2300 1730 l0 -160 28 0 c57 1 62 14 62 162 0 148 -4 158 -57 158
l-33 0 0 -160z"/>
</g>
</svg>
